<svg id="Layer_1" enable-background="new 0 0 512.012 512.012" viewBox="0 0 512.012 512.012" xmlns="http://www.w3.org/2000/svg"><g><g clip-rule="evenodd" fill-rule="evenodd"><path d="m78.05 433.968c-24.678-24.679-20.794-49.899-12.99-57.722l-14.133 14.134c-29.521 29.522-40.658 72.479-21.214 91.924 24.806 24.805 72.423-1.712 91.925-21.213l14.126-14.126c-11.686 11.655-38.279 6.439-57.714-12.997z" fill="#FFFF00"/><path d="m65.06 376.247c-7.804 7.822-11.688 33.043 12.99 57.722 19.435 19.435 46.028 24.652 57.714 12.997 138.74-138.739 169.066-169.066 305.607-305.608l-70.71-70.71z" fill="#FF0080"/><path d="m370.66 70.647 70.71 70.711c14.143-14.143 28.285-28.285 42.428-42.428l-8.839-8.839-53.034-53.034-8.838-8.838z" fill="#FFFF00"/><path d="m421.926 37.057 53.034 53.034 21.213-21.213c7.778-7.778 7.778-20.506 0-28.284l-24.749-24.75c-7.778-7.778-20.506-7.778-28.284 0z" fill="#FF00FF"/></g><path d="m512.007 54.736c0-8.029-3.112-15.563-8.763-21.213l-24.75-24.75c-11.696-11.696-30.729-11.698-42.426 0l-14.142 14.142-1.768-1.768c-1.875-1.875-4.419-2.929-7.071-2.929s-5.196 1.054-7.071 2.929l-35.356 35.357-14.143-14.143 10.001-10.001c3.905-3.905 3.905-10.237 0-14.143s-10.237-3.905-14.143 0l-141.421 141.422c-3.905 3.905-3.905 10.237 0 14.143 1.953 1.953 4.512 2.929 7.071 2.929s5.119-.976 7.071-2.929l117.279-117.278 14.143 14.143-312.663 312.662c-15.513 15.513-27.039 35.371-31.622 54.479-4.098 17.083-2.557 32.184 4.24 43.614l-13.539 13.539c-3.905 3.905-3.905 10.237 0 14.142 1.953 1.953 4.512 2.929 7.071 2.929s5.119-.977 7.071-2.929l13.475-13.475c7.241 4.442 15.785 6.701 25.296 6.7 7.774 0 16.192-1.502 25.053-4.534 20.39-6.974 38.065-19.87 47.808-29.612l14.142-14.142s0 0 .001-.001l348.017-348.018c3.905-3.905 3.905-10.237 0-14.143l-1.767-1.767 14.142-14.142c5.651-5.651 8.764-13.185 8.764-21.213zm-383.293 385.136c-.002.002-.003.003-.005.004-7.079 7.077-27.66 2.949-43.588-12.98-21.204-21.204-16.224-40.334-12.984-43.585l298.522-298.522 56.568 56.568zm-91.93 35.361c-13.261-13.261-6.517-44.389 13.654-69.356 2.164 9.657 7.618 22.24 20.54 35.162 10.175 10.175 22.553 17.385 35.032 20.459-20.133 15.644-52.988 29.973-69.226 13.735zm404.586-348.018-56.568-56.568 28.285-28.285 56.568 56.568zm47.731-65.408-14.141 14.142-38.891-38.891 14.142-14.142c3.899-3.899 10.243-3.898 14.142 0l24.75 24.75c1.873 1.873 2.904 4.384 2.904 7.071-.001 2.685-1.032 5.196-2.906 7.07z" fill="#000000"/></g></svg>